PathFileType	4	(X/Y/Z)	D:\datacapture\jf2lin\2017-09-14 IITTimeSync\timesync1.trc
DataRate	CameraRate	NumFrames	NumMarkers	Units	OrigDataRate	OrigDataStartFrame	OrigNumFrames
100.00	100.00	      100	3	mm	100.00	1621	      3241
Frame#	Time	M1			M2			M3			
		X1	Y1	Z1	X2	Y2	Z2	X3	Y3	Z3	

1621	16.200	86.34794	1121.08191	156.38811	135.81311	1134.06873	156.74812				
1622	16.210	86.59785	1118.50208	151.91173	138.49644	1135.49854	149.60913				
1623	16.220	88.52798	1118.70129	145.78285	140.03699	1132.91406	145.25060				
1624	16.230	90.94115	1118.22461	138.91084	141.43274	1132.79236	138.43346				
1625	16.240	93.24151	1118.95483	131.77277	143.68279	1132.84863	133.08345				
1626	16.250	93.39940	1116.96814	127.86491	144.94649	1133.13306	127.81420				
1627	16.260	95.04057	1117.12939	122.89640	146.27565	1132.56714	123.51045				
1628	16.270	96.09167	1116.75305	118.16025	147.15474	1131.22205	119.24792				
1629	16.280	98.06868	1117.43237	112.86673	148.61009	1131.96912	114.25903				
1630	16.290	98.15658	1115.71558	109.17133	149.18944	1130.82739	110.71512				
1631	16.300	99.38425	1115.17822	105.39680	151.10202	1131.15027	105.13348				
1632	16.310	101.99084	1117.72888	97.83311	151.84166	1131.00928	100.47472				
1633	16.320	102.72807	1117.69482	93.59081	153.32292	1132.26965	96.35009				
1634	16.330	103.23855	1116.97290	89.47710	153.58189	1130.94031	93.31309				
1635	16.340	104.06699	1117.00427	85.48694	153.84895	1130.71716	89.69525				
1636	16.350	104.28377	1117.01123	81.59727	154.54126	1131.03735	86.14634				
1637	16.360	105.25538	1117.90601	77.48206	154.75467	1130.35364	82.95954	298.40088	1172.43127	95.92208	
1638	16.370	105.80806	1118.48364	74.21904	156.39276	1132.76721	78.55113	298.86514	1171.44226	92.94106	
1639	16.380	106.27404	1118.54675	70.98471	156.31706	1131.82703	75.90649	299.02588	1169.66492	91.00321	
1640	16.390	106.21007	1118.90356	67.63544	156.80261	1132.42627	72.60381	300.01633	1171.62000	87.57217	
1641	16.400	107.48470	1119.88464	64.06712	157.39001	1133.65820	69.46846	300.14456	1171.88281	84.82102	
1642	16.410	107.32880	1119.28357	61.11757	157.28743	1132.77625	66.63157	301.21030	1173.29956	82.68889	
1643	16.420	107.81118	1119.23877	57.99218	158.48926	1133.43066	63.31904	301.28223	1174.68213	79.41932	
1644	16.430	108.54182	1120.40942	54.11561	158.77757	1133.72607	60.50322	301.31955	1173.45642	77.76987	
1645	16.440	108.70951	1120.82324	51.16378	159.30667	1134.12024	58.01102	301.95746	1175.02979	76.29137	
1646	16.450	109.27225	1121.52173	48.28271	159.38615	1134.84644	55.01704	301.23392	1174.98340	73.47941	
1647	16.460	109.53747	1121.38171	45.68866	159.55652	1134.91443	53.53473	302.25372	1175.95447	71.81393	
1648	16.470	109.53657	1121.35071	43.54951	159.50720	1135.14575	51.82528	302.52493	1177.86194	69.98979	
1649	16.480	110.00344	1121.34937	41.59779	159.51541	1135.74390	49.00023	302.03143	1176.60925	68.52103	
1650	16.490	110.19471	1121.51221	39.44794	160.19003	1136.21558	47.26561	301.98007	1176.70984	67.07085	
1651	16.500	110.25105	1121.18579	38.02970	159.82710	1135.74512	46.11037	302.58817	1179.31323	64.71561	
1652	16.510	110.39812	1121.02173	35.78059	160.28758	1135.92249	43.63694	302.20279	1178.05164	63.26772	
1653	16.520	110.32336	1120.93701	34.52276	160.32574	1135.65918	42.27985	302.27536	1177.63220	62.58616	
1654	16.530	110.81626	1121.34167	32.75575	160.40018	1135.82642	41.00263	301.75906	1178.75366	61.10630	
1655	16.540	111.15802	1120.25037	32.31569	160.58420	1135.68909	40.13864	302.51541	1180.34119	59.02341	
1656	16.550	111.15061	1119.69958	30.73478	161.72501	1135.58496	37.58137	301.93756	1179.32996	59.07481	
1657	16.560	111.47840	1119.54700	29.43414	162.09055	1135.74695	36.76546	301.66599	1179.00562	58.04015	
1658	16.570	111.82511	1119.08435	28.71446	161.55916	1135.19910	35.80537	301.19550	1178.97424	56.87756	
1659	16.580	112.06187	1118.39685	27.73174	161.57950	1134.60352	34.48140	301.99329	1181.17993	54.71319	
1660	16.590	112.28944	1118.21179	26.64372	161.78665	1133.71082	34.23639	301.48083	1179.60034	54.78886	
1661	16.600	112.51241	1117.79736	25.79244	161.69972	1133.85571	33.12192	302.27594	1181.40198	53.14127	
1662	16.610	112.98104	1117.79382	24.40514	162.34543	1134.12842	31.50399	302.09860	1180.70825	52.65868	
1663	16.620	113.34365	1118.18335	23.45486	162.37683	1133.09277	31.33509	301.90793	1180.02148	52.09548	
1664	16.630	113.63536	1116.75989	22.44864	162.45308	1132.76245	30.56704	301.07513	1179.98242	51.92328	
1665	16.640	114.00842	1116.25244	21.39482	163.21768	1133.60022	28.59542	301.63467	1181.27991	50.72459	
1666	16.650	114.23222	1115.59045	20.89163	163.35541	1132.91333	28.12271	302.21262	1181.79529	49.78543	
1667	16.660	114.84863	1114.94922	19.97127	164.03775	1133.00330	26.81299	301.89127	1181.94446	48.55933	
1668	16.670	115.07036	1114.64917	19.12873	164.01682	1132.28711	26.27155	301.36526	1181.41663	48.79529	
1669	16.680	115.94383	1115.25806	17.56917	163.97379	1132.54407	25.73582	301.59421	1182.80737	46.45982	
1670	16.690	116.22270	1115.17468	17.46572	163.74510	1132.01855	25.61075	301.63565	1184.80286	45.02895	
1671	16.700	115.85865	1113.78479	17.57343	164.53633	1133.05115	24.36647	301.63565	1184.80286	45.02895	
1672	16.710	116.18095	1114.72754	16.30614	164.67830	1133.62036	23.57088	301.28839	1184.23547	44.92277	
1673	16.720	116.19797	1114.55408	16.28954	164.42073	1133.84705	24.05277	301.16409	1185.21729	43.55245	
1674	16.730	116.33478	1114.90625	15.32358	164.15628	1133.86707	22.96912	301.93182	1186.65283	42.35067	
1675	16.740	116.31753	1115.38721	14.65799	164.25465	1134.15723	22.53832	301.74533	1186.68994	41.60106	
1676	16.750	116.10687	1114.98425	14.62408	164.28947	1134.23401	22.09807	301.74533	1186.68994	41.60106	
1677	16.760	116.29288	1115.71912	13.18211	164.27766	1133.72925	21.07330	301.74533	1186.68994	41.60106	
1678	16.770	116.42611	1116.07666	12.71797	164.43217	1134.79199	20.08399	301.29517	1186.81006	41.14127	
1679	16.780	116.48133	1115.93542	12.48267	164.49223	1135.00647	19.72683	301.76764	1188.48511	39.38071	
1680	16.790	116.32046	1116.20288	12.28960	164.49223	1135.00647	19.72683	301.89862	1189.07825	38.72628	
1681	16.800	116.28355	1116.06689	12.49644	164.41389	1135.10852	19.62434	301.37091	1190.53088	37.09828	
1682	16.810	116.36322	1116.84656	12.18479	164.52892	1136.06714	18.82778	301.47546	1191.46912	35.97752	
1683	16.820	116.81011	1117.81763	11.92733	164.50453	1137.02649	17.99059	301.77307	1191.90063	34.11937	
1684	16.830	116.76550	1117.85571	11.84935	164.38957	1136.85803	17.97106	301.54449	1191.94861	33.86451	
1685	16.840	116.69899	1118.35095	11.72013	164.30235	1137.67529	18.00963	301.72455	1193.33337	32.23064	
1686	16.850	116.76685	1118.89893	11.15310	164.39790	1137.87146	17.72857	301.47760	1193.60730	31.12385	
1687	16.860	116.71792	1119.11694	11.02580	164.44173	1138.76550	16.88117	301.47760	1193.60730	31.12385	
1688	16.870	116.87115	1119.90247	10.65243	164.29810	1139.03235	16.64395	301.47760	1193.60730	31.12385	
1689	16.880	116.58068	1119.95325	10.47948	164.25299	1139.15405	16.22895	301.47760	1193.60730	31.12385	
1690	16.890	116.10129	1119.78003	10.35785	164.24557	1139.83472	15.97488	301.47760	1193.60730	31.12385	
1691	16.900	116.07016	1120.03577	10.40633	164.55573	1140.19080	15.30810	301.85883	1194.51367	29.73218	
1692	16.910	115.96022	1119.66125	10.22378	164.11339	1139.85315	15.69477	301.58163	1193.94434	28.99007	
1693	16.920	115.68584	1119.74963	10.12206	164.25005	1139.68164	15.52959	302.00629	1194.83533	28.19944	
1694	16.930	115.44355	1119.48840	10.02418	164.42662	1139.87671	15.27869	302.00629	1194.83533	28.19944	
1695	16.940	115.69119	1120.17249	9.33718	164.09076	1139.63708	15.14292	302.00629	1194.83533	28.19944	
1696	16.950	115.30755	1119.23792	9.54189	164.03593	1139.52856	14.65902	302.00629	1194.83533	28.19944	
1697	16.960	115.77292	1120.47803	8.96438	164.19185	1139.82654	14.63883	302.00629	1194.83533	28.19944	
1698	16.970	115.97215	1120.75183	7.79798	164.14551	1139.76843	14.51790	301.97986	1193.66907	28.55135	
1699	16.980	115.92297	1121.00684	7.43395	164.10544	1139.39502	14.18092	301.97986	1193.66907	28.55135	
1700	16.990	115.99913	1120.94031	7.51744	164.03746	1139.45605	14.08820	302.18018	1193.51392	28.92163	
1701	17.000	116.04779	1120.95886	7.13950	164.07179	1139.15198	13.85428	302.41074	1194.38098	27.99700	
1702	17.010	115.78782	1120.71655	7.30837	164.02408	1139.21387	13.54665	302.41074	1194.38098	27.99700	
1703	17.020	115.78984	1120.63184	7.18831	164.02408	1139.21387	13.54665	302.41074	1194.38098	27.99700	
1704	17.030	115.78782	1120.71655	7.30837	164.02408	1139.21387	13.54665	302.41074	1194.38098	27.99700	
1705	17.040	115.84045	1120.71802	7.38718	164.47369	1139.47656	12.67828	302.41074	1194.38098	27.99700	
1706	17.050	115.88344	1120.33972	7.41311	164.44421	1139.05981	12.82719	302.40173	1193.64929	27.63861	
1707	17.060	116.21416	1120.58240	7.39894	164.22580	1138.92920	13.63911	302.00729	1192.48181	27.57784	
1708	17.070	116.02770	1120.46082	7.52791	164.03088	1138.86023	13.68195	302.86258	1194.08362	26.23245	
1709	17.080	116.63398	1121.34436	7.13375	164.44421	1139.05981	12.82719	302.58026	1194.00366	25.32941	
1710	17.090	116.25845	1121.44507	7.13266	164.44421	1139.05981	12.82719	302.55173	1193.16272	25.62676	
1711	17.100	115.85283	1120.90405	7.52267	164.20059	1139.40869	13.29570	303.64282	1194.53931	24.77191	
1712	17.110	115.92297	1121.00684	7.43395	164.78371	1139.83337	12.28304	303.07693	1193.96936	25.02906	
1713	17.120	116.27148	1121.49561	7.48145	165.09779	1140.05469	12.15299	304.20883	1195.10938	24.51461	
1714	17.130	116.25966	1121.93872	7.27298	164.78371	1139.83337	12.28304	304.17294	1195.32019	24.21176	
1715	17.140	116.02644	1122.46680	7.18681	164.78371	1139.83337	12.28304	304.73462	1195.91663	23.91644	
1716	17.150	115.93472	1122.44458	7.59459	164.20059	1139.40869	13.29570	304.52478	1194.63806	24.15521	
1717	17.160	115.93472	1122.44458	7.59459	164.26443	1139.52783	13.31880	304.55896	1193.96765	23.75371	
1718	17.170	116.08345	1122.59692	7.38882	164.26443	1139.52783	13.31880	304.53177	1192.80066	24.10709	
1719	17.180	115.24445	1121.26672	7.93858	164.46063	1139.58765	13.29107	304.96011	1193.60181	23.43361	
1720	17.190	115.93472	1122.44458	7.59459	164.26443	1139.52783	13.31880	304.98743	1194.76941	23.07996	
